<svg xmlns="http://www.w3.org/2000/svg" width="64" height="64" viewBox="0 0 64 64">
  <defs>
    <linearGradient id="g" x1="0" y1="0" x2="1" y2="1" gradientUnits="objectBoundingBox">
      <stop offset="0" stop-color="#5b21b6"/>
      <stop offset="0.55" stop-color="#7c3aed"/>
      <stop offset="1" stop-color="#a78bfa"/>
    </linearGradient>
  </defs>
  <rect x="0" y="0" width="64" height="64" rx="18" fill="url(#g)"/>
  <g transform="translate(13.6,13.6) scale(1.175)" stroke="#ffffff" stroke-opacity="0.55" stroke-width="1.1" stroke-linecap="round">
    <line x1="6" y1="6" x2="26" y2="6"/>
    <line x1="6" y1="16" x2="26" y2="16"/>
    <line x1="6" y1="26" x2="26" y2="26"/>
    <line x1="6" y1="6" x2="6" y2="26"/>
    <line x1="16" y1="6" x2="16" y2="26"/>
    <line x1="26" y1="6" x2="26" y2="26"/>
    <line x1="6" y1="6" x2="26" y2="26" stroke-opacity="0.28"/>
    <line x1="26" y1="6" x2="6" y2="26" stroke-opacity="0.28"/>
  </g>
  <g transform="translate(13.6,13.6) scale(1.175)" fill="#5b21b6" stroke="#ffffff" stroke-width="1.4">
    <circle cx="6" cy="6" r="1.7"/>
    <circle cx="16" cy="6" r="1.7"/>
    <circle cx="26" cy="6" r="1.7"/>
    <circle cx="6" cy="16" r="1.7"/>
    <circle cx="26" cy="16" r="1.7"/>
    <circle cx="6" cy="26" r="1.7"/>
    <circle cx="16" cy="26" r="1.7"/>
    <circle cx="26" cy="26" r="1.7"/>
  </g>
  <g transform="translate(13.6,13.6) scale(1.175)">
    <circle cx="16" cy="16" r="3.4" fill="#ffffff"/>
    <circle cx="16" cy="16" r="1.6" fill="#5b21b6"/>
  </g>
  <!-- Top-right activity dot -->
  <circle cx="55" cy="9" r="3" fill="#5fc8ff"/>
</svg>
